<svg width="36" height="37" viewBox="0 0 36 37" fill="none" xmlns="http://www.w3.org/2000/svg">
<path d="M17.7863 35.8429C27.3023 35.8429 35.0167 27.9465 35.0167 18.2059C35.0167 8.46526 27.3023 0.568909 17.7863 0.568909C8.27016 0.568909 0.555847 8.46526 0.555847 18.2059C0.555847 27.9465 8.27016 35.8429 17.7863 35.8429Z" fill="#EA4C89"/>
<path fill-rule="evenodd" clip-rule="evenodd" d="M17.7862 0C7.96715 0 0 8.15515 0 18.2059C0 28.2567 7.96715 36.4118 17.7862 36.4118C27.586 36.4118 35.5724 28.2567 35.5724 18.2059C35.5724 8.15515 27.586 0 17.7862 0ZM29.5344 8.3921C31.6564 11.0381 32.9296 14.4147 32.9682 18.0677C32.4666 17.969 27.4509 16.9224 22.3967 17.5741C22.281 17.3174 22.1845 17.0409 22.0688 16.7645C21.7601 16.0142 21.4129 15.244 21.0657 14.5134C26.66 12.1834 29.2064 8.82652 29.5344 8.3921ZM17.7862 2.68548C21.6444 2.68548 25.1746 4.16644 27.8561 6.59521C27.586 6.99013 25.2903 10.1298 19.8889 12.2031C17.4004 7.52327 14.6418 3.69252 14.2174 3.10014C15.3555 2.82369 16.5516 2.68548 17.7862 2.68548ZM11.3238 4.14668C11.7289 4.69957 14.4296 8.55007 16.9567 13.1311C9.85766 15.0663 3.58811 15.0268 2.91293 15.0268C3.89676 10.2087 7.07976 6.20028 11.3238 4.14668ZM2.58498 18.2257C2.58498 18.0677 2.58498 17.9097 2.58498 17.7518C3.24087 17.7715 10.61 17.8702 18.1913 15.5402C18.6351 16.409 19.0402 17.2976 19.426 18.1861C19.233 18.2454 19.0208 18.3047 18.8279 18.3639C10.9958 20.9506 6.82899 28.0197 6.48174 28.6121C4.07038 25.8674 2.58498 22.2144 2.58498 18.2257ZM17.7862 33.7658C14.2752 33.7658 11.0344 32.5416 8.46871 30.488C8.73878 29.9154 11.8253 23.8336 20.3905 20.773C20.429 20.7532 20.4484 20.7532 20.4869 20.7335C22.6282 26.4005 23.4964 31.1593 23.7278 32.5218C21.8952 33.3314 19.8889 33.7658 17.7862 33.7658ZM26.2549 31.1002C26.1006 30.1523 25.2903 25.6107 23.3034 20.0225C28.0683 19.2524 32.2351 20.5163 32.756 20.694C32.1001 25.0183 29.6694 28.7503 26.2549 31.1002Z" fill="#C32361"/>
</svg>
