<svg width="36" height="26" viewBox="0 0 36 26" fill="none" xmlns="http://www.w3.org/2000/svg">
<path d="M34.8287 4.0053C34.6275 3.23066 34.2312 2.52368 33.6793 1.9551C33.1273 1.38652 32.4392 0.976294 31.6837 0.765476C28.9026 9.04298e-08 17.7862 0 17.7862 0C17.7862 0 6.66983 9.04298e-08 3.88872 0.765476C3.13324 0.976294 2.4451 1.38652 1.89318 1.9551C1.34125 2.52368 0.944901 3.23066 0.743788 4.0053C8.83451e-08 6.86446 0 12.8269 0 12.8269C0 12.8269 8.83451e-08 18.7893 0.743788 21.6485C0.944901 22.4231 1.34125 23.1301 1.89318 23.6987C2.4451 24.2673 3.13324 24.6775 3.88872 24.8883C6.66983 25.6538 17.7862 25.6538 17.7862 25.6538C17.7862 25.6538 28.9026 25.6538 31.6837 24.8883C32.4392 24.6775 33.1273 24.2673 33.6793 23.6987C34.2312 23.1301 34.6275 22.4231 34.8287 21.6485C35.5724 18.7893 35.5724 12.8269 35.5724 12.8269C35.5724 12.8269 35.5724 6.86446 34.8287 4.0053Z" fill="#FF0302"/>
<path d="M14.1481 18.2412V7.41281L23.4454 12.827L14.1481 18.2412Z" fill="#FEFEFE"/>
</svg>
